<?xml version="1.0" encoding="UTF-8"?>
<svg width="36" height="36" viewBox="0 0 36 36" fill="none" xmlns="http://www.w3.org/2000/svg">
  <path d="M24.6 19.6c0-0.8 0.7-1.5 1.5-1.5s1.5 0.7 1.5 1.5-0.7 1.5-1.5 1.5c-0.9 0-1.5-0.7-1.5-1.5z m-7.5 0c0-0.8 0.7-1.5 1.5-1.5s1.5 0.7 1.5 1.5-0.7 1.5-1.5 1.5c-0.9 0-1.5-0.7-1.5-1.5z m-7.5 0c0-0.8 0.7-1.5 1.5-1.5s1.5 0.7 1.5 1.5-0.7 1.5-1.5 1.5c-0.9 0-1.5-0.7-1.5-1.5z" fill="#FFFFFF"/>
  <path d="M27.5 2h-19C4.4 2 1 5.4 1 9.5v17C1 30.6 4.4 34 8.5 34h19c4.1 0 7.5-3.4 7.5-7.5v-17C35 5.4 31.6 2 27.5 2z m4.5 24.5c0 2.5-2 4.5-4.5 4.5h-19c-2.5 0-4.5-2-4.5-4.5v-17C4 7 6 5 8.5 5h19C30 5 32 7 32 9.5v17z" fill="#FFFFFF"/>
</svg>
